<svg xmlns="http://www.w3.org/2000/svg" style="display:none;">
  
  <symbol id="icon-github" viewBox="0 0 24 24">
    <path d="M12 .5C5.65.5.5 5.65.5 12c0 5.08 3.29 9.38 7.86 10.9.57.1.78-.25.78-.56 
    0-.28-.01-1.02-.02-2-3.2.7-3.88-1.54-3.88-1.54-.52-1.32-1.27-1.67-1.27-1.67
    -1.04-.71.08-.7.08-.7 1.15.08 1.76 1.18 1.76 1.18 1.02 1.75 2.67 1.24 3.32.95
    .1-.74.4-1.24.72-1.52-2.55-.29-5.23-1.27-5.23-5.65 0-1.25.45-2.27 1.18-3.07
    -.12-.29-.51-1.46.11-3.05 0 0 .96-.31 3.15 1.17a10.9 10.9 0 0 1 2.87-.39
    c.97 0 1.95.13 2.87.39 2.19-1.48 3.15-1.17 3.15-1.17.62 1.59.23 2.76.11 3.05
    .73.8 1.18 1.82 1.18 3.07 0 4.39-2.69 5.36-5.25 5.64.41.36.77 1.08.77 2.18
    0 1.58-.01 2.86-.01 3.25 0 .31.21.67.79.56A11.51 11.51 0 0 0 23.5 12
    C23.5 5.65 18.35.5 12 .5z"/>
  </symbol>

  <symbol id="icon-linkedin" viewBox="0 0 24 24">
    <path d="M4.98 3.5C4.98 4.88 3.87 6 2.49 6S0 4.88 0 3.5 1.11 1 2.49 1 
    4.98 2.12 4.98 3.5zM.22 8h4.54v14H.22V8zM8.56 8h4.35v1.91h.06
    c.61-1.15 2.1-2.37 4.32-2.37 4.62 0 5.47 3.04 5.47 6.99V22h-4.54v-6.84
    c0-1.63-.03-3.73-2.27-3.73-2.27 0-2.62 1.77-2.62 3.61V22H8.56V8z"/>
  </symbol>

<symbol id="icon-x" viewBox="0 0 24 24">
  <path d="M18.244 2H21l-6.5 7.43L22 22h-6.828l-5.34-6.99L3.5 22H1l6.94-7.93L2 
  2h6.9l4.83 6.38L18.244 2zm-1.2 18h1.9L7.1 4H5.1l11.944 16z"/>
</symbol>

<symbol id="icon-instagram" viewBox="0 0 24 24">
  <path d="M7.75 2C4.13 2 2 4.13 2 7.75v8.5C2 19.87 4.13 22 7.75 22h8.5C19.87 
  22 22 19.87 22 16.25v-8.5C22 4.13 19.87 2 16.25 2h-8.5zm0 2h8.5C18.22 4 
  20 5.78 20 7.75v8.5c0 1.97-1.78 3.75-3.75 3.75h-8.5C5.78 20 4 18.22 
  4 16.25v-8.5C4 5.78 5.78 4 7.75 4zm8.75 1.5a1.25 1.25 0 1 0 0 
  2.5 1.25 1.25 0 0 0 0-2.5zM12 7a5 5 0 1 0 0 10 5 5 0 0 0 
  0-10zm0 2a3 3 0 1 1 0 6 3 3 0 0 1 0-6z"/>
</symbol>
</svg>
